<svg width="1077" height="850" xmlns="http://www.w3.org/2000/svg" xmlns:xlink="http://www.w3.org/1999/xlink" xml:space="preserve" overflow="hidden"><defs><clipPath id="clip0"><rect x="1978" y="353" width="1077" height="850"/></clipPath></defs><g clip-path="url(#clip0)" transform="translate(-1978 -353)"><path d="M2676 615.5C2676 510.842 2760.84 426 2865.5 426 2970.16 426 3055 510.842 3055 615.5 3055 720.158 2970.16 805 2865.5 805 2760.84 805 2676 720.158 2676 615.5Z" fill="#EBD306" fill-rule="evenodd"/><path d="M1978 647.5C1978 542.842 2062.84 458 2167.5 458 2272.16 458 2357 542.842 2357 647.5 2357 752.158 2272.16 837 2167.5 837 2062.84 837 1978 752.158 1978 647.5Z" fill="#EBD306" fill-rule="evenodd"/><path d="M2327 1013.5C2327 908.842 2411.84 824 2516.5 824 2621.16 824 2706 908.842 2706 1013.5 2706 1118.16 2621.16 1203 2516.5 1203 2411.84 1203 2327 1118.16 2327 1013.5Z" fill="#EBD306" fill-rule="evenodd"/><path d="M2327 542.5C2327 437.842 2411.84 353 2516.5 353 2621.16 353 2706 437.842 2706 542.5 2706 647.158 2621.16 732 2516.5 732 2411.84 732 2327 647.158 2327 542.5Z" fill="#EBD306" fill-rule="evenodd"/><path d="M2140 599.5C2140 510.858 2211.86 439 2300.5 439 2389.14 439 2461 510.858 2461 599.5 2461 688.142 2389.14 760 2300.5 760 2211.86 760 2140 688.142 2140 599.5Z" fill="#EBD306" fill-rule="evenodd"/><path d="M2604 540.5C2604 484.443 2649.67 439 2706 439 2762.33 439 2808 484.443 2808 540.5 2808 596.557 2762.33 642 2706 642 2649.67 642 2604 596.557 2604 540.5Z" fill="#EBD306" fill-rule="evenodd"/><path d="M2495 814C2495 719.007 2571.78 642 2666.5 642 2761.22 642 2838 719.007 2838 814 2838 908.993 2761.22 986 2666.5 986 2571.78 986 2495 908.993 2495 814Z" fill="#EBD306" fill-rule="evenodd"/><path d="M2267 751C2267 656.007 2343.78 579 2438.5 579 2533.22 579 2610 656.007 2610 751 2610 845.993 2533.22 923 2438.5 923 2343.78 923 2267 845.993 2267 751Z" fill="#EBD306" fill-rule="evenodd"/><text font-family="Aptos,Aptos_MSFontService,sans-serif" font-weight="700" font-size="165" transform="matrix(1 0 0 1 2086.99 737)">Exploration</text></g></svg>