<svg width="1204" height="1204" xmlns="http://www.w3.org/2000/svg" xmlns:xlink="http://www.w3.org/1999/xlink" xml:space="preserve" overflow="hidden"><defs><clipPath id="clip0"><rect x="3110" y="239" width="1204" height="1204"/></clipPath></defs><g clip-path="url(#clip0)" transform="translate(-3110 -239)"><path d="M3110 841C3110 508.525 3379.52 239 3712 239 4044.48 239 4314 508.525 4314 841 4314 1173.48 4044.48 1443 3712 1443 3379.52 1443 3110 1173.48 3110 841Z" fill="#FFFFFF" fill-rule="evenodd"/><path d="M3256 840.5C3256 588.934 3459.93 385 3711.5 385 3963.07 385 4167 588.934 4167 840.5 4167 1092.07 3963.07 1296 3711.5 1296 3459.93 1296 3256 1092.07 3256 840.5ZM3303.92 840.5C3303.92 1065.6 3486.4 1248.08 3711.5 1248.08 3936.6 1248.08 4119.08 1065.6 4119.08 840.5 4119.08 615.399 3936.6 432.918 3711.5 432.918 3486.4 432.918 3303.92 615.399 3303.92 840.5Z" fill="#EBD306" fill-rule="evenodd"/><path d="M3549 779 3712.5 498 3876 779Z" fill="#EBD306" fill-rule="evenodd"/><rect x="3430" y="807" width="282" height="281" fill="#EBD306"/><path d="M3735 947.5C3735 869.904 3797.9 807 3875.5 807 3953.1 807 4016 869.904 4016 947.5 4016 1025.1 3953.1 1088 3875.5 1088 3797.9 1088 3735 1025.1 3735 947.5Z" fill="#EBD306" fill-rule="evenodd"/><text font-family="Aptos,Aptos_MSFontService,sans-serif" font-weight="700" font-size="165" transform="matrix(1 0 0 1 3392.72 866)">Focused</text></g></svg>