<svg width="911" height="910" xmlns="http://www.w3.org/2000/svg" xmlns:xlink="http://www.w3.org/1999/xlink" xml:space="preserve" overflow="hidden"><g transform="translate(-3181 -1015)"><path d="M3181 1470C3181 1218.71 3384.93 1015 3636.5 1015 3888.07 1015 4092 1218.71 4092 1470 4092 1721.29 3888.07 1925 3636.5 1925 3384.93 1925 3181 1721.29 3181 1470ZM3228.87 1470C3228.87 1694.85 3411.37 1877.13 3636.5 1877.13 3861.63 1877.13 4044.13 1694.85 4044.13 1470 4044.13 1245.15 3861.63 1062.87 3636.5 1062.87 3411.37 1062.87 3228.87 1245.15 3228.87 1470Z" fill="#EBD306" fill-rule="evenodd"/><path d="M3474 1408 3637 1127 3800 1408Z" fill="#EBD306" fill-rule="evenodd"/><rect x="3355" y="1436" width="282" height="281" fill="#EBD306"/><path d="M3660 1576.5C3660 1498.9 3722.9 1436 3800.5 1436 3878.1 1436 3941 1498.9 3941 1576.5 3941 1654.1 3878.1 1717 3800.5 1717 3722.9 1717 3660 1654.1 3660 1576.5Z" fill="#EBD306" fill-rule="evenodd"/><text font-family="Aptos,Aptos_MSFontService,sans-serif" font-weight="700" font-size="165" transform="matrix(1 0 0 1 3317.53 1495)">Focused</text></g></svg>