<svg width="1204" height="1205" xmlns="http://www.w3.org/2000/svg" xmlns:xlink="http://www.w3.org/1999/xlink" xml:space="preserve" overflow="hidden"><defs><clipPath id="clip0"><rect x="1823" y="806" width="1204" height="1205"/></clipPath></defs><g clip-path="url(#clip0)" transform="translate(-1823 -806)"><path d="M1823 1408.5C1823 1075.75 2092.52 806 2425 806 2757.48 806 3027 1075.75 3027 1408.5 3027 1741.25 2757.48 2011 2425 2011 2092.52 2011 1823 1741.25 1823 1408.5Z" fill="#FFFFFF" fill-rule="evenodd"/><path d="M2584 1283.5C2584 1178.84 2668.84 1094 2773.5 1094 2878.16 1094 2963 1178.84 2963 1283.5 2963 1388.16 2878.16 1473 2773.5 1473 2668.84 1473 2584 1388.16 2584 1283.5Z" fill="#EBD306" fill-rule="evenodd"/><path d="M1885 1315.5C1885 1210.84 1969.84 1126 2074.5 1126 2179.16 1126 2264 1210.84 2264 1315.5 2264 1420.16 2179.16 1505 2074.5 1505 1969.84 1505 1885 1420.16 1885 1315.5Z" fill="#EBD306" fill-rule="evenodd"/><path d="M2234 1681.5C2234 1576.84 2319.07 1492 2424 1492 2528.93 1492 2614 1576.84 2614 1681.5 2614 1786.16 2528.93 1871 2424 1871 2319.07 1871 2234 1786.16 2234 1681.5Z" fill="#EBD306" fill-rule="evenodd"/><path d="M2234 1210.5C2234 1105.84 2319.07 1021 2424 1021 2528.93 1021 2614 1105.84 2614 1210.5 2614 1315.16 2528.93 1400 2424 1400 2319.07 1400 2234 1315.16 2234 1210.5Z" fill="#EBD306" fill-rule="evenodd"/><path d="M2047 1267.5C2047 1178.86 2118.86 1107 2207.5 1107 2296.14 1107 2368 1178.86 2368 1267.5 2368 1356.14 2296.14 1428 2207.5 1428 2118.86 1428 2047 1356.14 2047 1267.5Z" fill="#EBD306" fill-rule="evenodd"/><path d="M2512 1209C2512 1152.67 2557.44 1107 2613.5 1107 2669.56 1107 2715 1152.67 2715 1209 2715 1265.33 2669.56 1311 2613.5 1311 2557.44 1311 2512 1265.33 2512 1209Z" fill="#EBD306" fill-rule="evenodd"/><path d="M2402 1482.5C2402 1387.78 2478.78 1311 2573.5 1311 2668.22 1311 2745 1387.78 2745 1482.5 2745 1577.22 2668.22 1654 2573.5 1654 2478.78 1654 2402 1577.22 2402 1482.5Z" fill="#EBD306" fill-rule="evenodd"/><path d="M2175 1419C2175 1324.01 2251.78 1247 2346.5 1247 2441.22 1247 2518 1324.01 2518 1419 2518 1513.99 2441.22 1591 2346.5 1591 2251.78 1591 2175 1513.99 2175 1419Z" fill="#EBD306" fill-rule="evenodd"/><text font-family="Aptos,Aptos_MSFontService,sans-serif" font-weight="700" font-size="165" transform="matrix(1 0 0 1 1994.49 1405)">Exploration</text></g></svg>